name: Berkeley 14
spacing: proportional
bounding-box: 15x18
family: Berkeley
font-id: 514
style: sans serif
point-size: 14
average-width: 8.59765625
max-width: 16
x-height: 8
ascent: 10
descent: 4
line-height: 19
encoding: pc-geos
default-char: 0x2e
underline-descent: 2
strikethrough-ascent: 5
converter: monobit v0.44
source-name: BERKELEY.FNT
source-path: GEOS20/USERDATA/FONT/BERKELEY.FNT
source-format: pcgeos
history: label -char-from=pc-geos

0x20:
' ':
    -

    shift-up: 14
    right-bearing: 6


0x21:
'!':
    @@
    @@
    @@
    @@
    @@
    @@
    @@
    ..
    @@
    @@

    left-bearing: 1
    right-bearing: 1


0x22:
'"':
    @@..@@
    @@..@@
    .@...@
    @...@.

    shift-up: 6
    left-bearing: 1
    right-bearing: 1


0x23:
'#':
    ...@@.@@.
    .@@@@@@@@
    ..@@.@@..
    @@@@@@@@.
    .@@.@@...

    shift-up: 5
    left-bearing: 1
    right-bearing: 1


0x24:
'$':
    ...@@...
    ...@@...
    .@@@@@@.
    @@.@@.@@
    @@.@@...
    @@.@@...
    .@@@@@@.
    ...@@.@@
    ...@@.@@
    ...@@.@@
    @@.@@.@@
    .@@@@@@.
    ...@@...
    ...@@...

    shift-up: -2
    left-bearing: 1
    right-bearing: 1


0x25:
'%':
    .@@@@@@@@@@.
    @@..@@...@@.
    @@..@@..@@..
    .@@@@..@@...
    ......@@....
    .....@@.....
    ....@@.@@@@.
    ...@@.@@..@@
    ..@@..@@..@@
    ..@@...@@@@.

    left-bearing: 1
    right-bearing: 1


0x26:
'&':
    .@@@@....
    @@..@@...
    @@..@@...
    @@..@@...
    .@@@@....
    .@@@@....
    @@..@@.@.
    @@...@@..
    @@@..@@@.
    .@@@@..@@

    left-bearing: 1
    right-bearing: 1


0x27:
''':
    @@
    @@
    .@
    @.

    shift-up: 6
    left-bearing: 1
    right-bearing: 1


0x28:
'(':
    ...@
    ..@@
    .@@.
    .@@.
    @@..
    @@..
    @@..
    @@..
    @@..
    @@..
    .@@.
    .@@.
    ..@@
    ...@

    shift-up: -2
    left-bearing: 1
    right-bearing: 1


0x29:
')':
    @...
    @@..
    .@@.
    .@@.
    ..@@
    ..@@
    ..@@
    ..@@
    ..@@
    ..@@
    .@@.
    .@@.
    @@..
    @...

    shift-up: -2
    left-bearing: 1
    right-bearing: 1


0x2a:
'*':
    .@@..@@.
    ..@@@@..
    @@@@@@@@
    ..@@@@..
    .@@..@@.

    shift-up: 5
    left-bearing: 1
    right-bearing: 1


0x2b:
'+':
    ..@@..
    ..@@..
    @@@@@@
    @@@@@@
    ..@@..
    ..@@..

    shift-up: 2
    left-bearing: 1
    right-bearing: 1


0x2c:
',':
    @@
    @@
    .@
    @.

    shift-up: -2
    left-bearing: 1
    right-bearing: 1


0x2d:
'-':
    @@@@@@
    @@@@@@

    shift-up: 4
    left-bearing: 1
    right-bearing: 1


0x2e:
'.':
    @@
    @@

    left-bearing: 1
    right-bearing: 1


0x2f:
'/':
    .....@@
    .....@@
    ....@@.
    ....@@.
    ...@@..
    ...@@..
    ..@@...
    ..@@...
    .@@....
    .@@....
    @@.....
    @@.....

    shift-up: -1
    left-bearing: 1
    right-bearing: 1


0x30:
'0':
    ..@@@@..
    .@@..@@.
    @@....@@
    @@....@@
    @@....@@
    @@....@@
    @@....@@
    @@....@@
    .@@..@@.
    ..@@@@..

    left-bearing: 1
    right-bearing: 1


0x31:
'1':
    .@@
    @@@
    .@@
    .@@
    .@@
    .@@
    .@@
    .@@
    .@@
    .@@

    left-bearing: 4
    right-bearing: 3


0x32:
'2':
    ..@@@@..
    .@@..@@.
    @@....@@
    ......@@
    .....@@.
    ....@@..
    ...@@...
    ..@@....
    .@@.....
    .@@@@@@@

    left-bearing: 1
    right-bearing: 1


0x33:
'3':
    @@@@@@@@
    .....@@.
    ....@@..
    ...@@...
    ....@@..
    .....@@.
    ......@@
    ......@@
    @@...@@.
    .@@@@@..

    left-bearing: 1
    right-bearing: 1


0x34:
'4':
    ......@@.
    .....@@@.
    ....@@@@.
    ...@@.@@.
    ..@@..@@.
    .@@...@@.
    @@....@@.
    @@@@@@@@@
    ......@@.
    ......@@.

    right-bearing: 1


0x35:
'5':
    @@@@@@@@
    @@......
    @@......
    @@@@@@..
    .....@@.
    ......@@
    ......@@
    ......@@
    @@...@@.
    .@@@@@..

    left-bearing: 1
    right-bearing: 1


0x36:
'6':
    ..@@@@..
    .@@.....
    @@......
    @@.@@@..
    @@@..@@.
    @@....@@
    @@....@@
    @@....@@
    .@@..@@.
    ..@@@@..

    left-bearing: 1
    right-bearing: 1


0x37:
'7':
    @@@@@@@@
    ......@@
    .....@@.
    .....@@.
    ....@@..
    ....@@..
    ...@@...
    ...@@...
    ...@@...
    ...@@...

    left-bearing: 1
    right-bearing: 1


0x38:
'8':
    ..@@@@..
    .@@..@@.
    @@....@@
    .@@..@@.
    ..@@@@..
    .@@..@@.
    @@....@@
    @@....@@
    .@@..@@.
    ..@@@@..

    left-bearing: 1
    right-bearing: 1


0x39:
'9':
    ..@@@@..
    .@@..@@.
    @@....@@
    @@....@@
    @@....@@
    .@@..@@@
    ..@@@.@@
    ......@@
    .....@@.
    ..@@@@..

    left-bearing: 1
    right-bearing: 1


0x3a:
':':
    @@
    @@
    ..
    ..
    @@
    @@

    left-bearing: 1
    right-bearing: 1


0x3b:
';':
    @@
    @@
    ..
    ..
    @@
    @@
    .@
    @.

    shift-up: -2
    left-bearing: 1
    right-bearing: 1


0x3c:
'<':
    ....@@
    ...@@.
    ..@@..
    .@@...
    @@....
    .@@...
    ..@@..
    ...@@.
    ....@@

    shift-up: -1
    left-bearing: 1
    right-bearing: 1


0x3d:
'=':
    @@@@@@
    @@@@@@
    ......
    @@@@@@
    @@@@@@

    shift-up: 1
    left-bearing: 1
    right-bearing: 1


0x3e:
'>':
    @@....
    .@@...
    ..@@..
    ...@@.
    ....@@
    ...@@.
    ..@@..
    .@@...
    @@....

    shift-up: -1
    left-bearing: 1
    right-bearing: 1


0x3f:
'?':
    ..@@@@..
    .@@..@@.
    @@....@@
    ......@@
    .....@@.
    ....@@..
    ...@@...
    ...@@...
    ........
    ...@@...
    ...@@...

    shift-up: -1
    left-bearing: 1
    right-bearing: 1


0x40:
'@':
    ..@@@@@@..
    .@@....@@.
    @@..@@@.@@
    @@.@..@.@@
    @@.@..@.@@
    @@.@..@.@@
    @@..@@@@@.
    .@@.......
    ..@@@@@...

    left-bearing: 1
    right-bearing: 1


0x41:
'A':
    .@@@@@@.
    @@....@@
    @@....@@
    @@....@@
    @@@@@@@@
    @@....@@
    @@....@@
    @@....@@
    @@....@@
    @@....@@

    left-bearing: 1
    right-bearing: 1


0x42:
'B':
    @@@@@@@.
    @@....@@
    @@....@@
    @@....@@
    @@@@@@@.
    @@....@@
    @@....@@
    @@....@@
    @@....@@
    @@@@@@@.

    left-bearing: 1
    right-bearing: 1


0x43:
'C':
    ..@@@@@.
    .@@...@@
    @@......
    @@......
    @@......
    @@......
    @@......
    @@......
    .@@...@@
    ..@@@@@.

    left-bearing: 1
    right-bearing: 1


0x44:
'D':
    @@@@@@..
    @@...@@.
    @@....@@
    @@....@@
    @@....@@
    @@....@@
    @@....@@
    @@....@@
    @@...@@.
    @@@@@@..

    left-bearing: 1
    right-bearing: 1


0x45:
'E':
    @@@@@@@
    @@.....
    @@.....
    @@.....
    @@@@@@.
    @@.....
    @@.....
    @@.....
    @@.....
    @@@@@@@

    left-bearing: 1
    right-bearing: 1


0x46:
'F':
    @@@@@@@
    @@.....
    @@.....
    @@.....
    @@@@@@.
    @@.....
    @@.....
    @@.....
    @@.....
    @@.....

    left-bearing: 1
    right-bearing: 1


0x47:
'G':
    ..@@@@@.
    .@@...@@
    @@......
    @@......
    @@...@@@
    @@....@@
    @@....@@
    @@....@@
    .@@...@@
    ..@@@@@.

    left-bearing: 1
    right-bearing: 1


0x48:
'H':
    @@....@@
    @@....@@
    @@....@@
    @@....@@
    @@@@@@@@
    @@....@@
    @@....@@
    @@....@@
    @@....@@
    @@....@@

    left-bearing: 1
    right-bearing: 1


0x49:
'I':
    @@
    @@
    @@
    @@
    @@
    @@
    @@
    @@
    @@
    @@

    left-bearing: 1
    right-bearing: 1


0x4a:
'J':
    ......@@
    ......@@
    ......@@
    ......@@
    ......@@
    ......@@
    ......@@
    @@....@@
    @@....@@
    .@@@@@@.

    right-bearing: 1


0x4b:
'K':
    @@....@@
    @@...@@.
    @@..@@..
    @@.@@...
    @@@@....
    @@@@....
    @@.@@...
    @@..@@..
    @@...@@.
    @@....@@

    left-bearing: 1
    right-bearing: 1


0x4c:
'L':
    @@.....
    @@.....
    @@.....
    @@.....
    @@.....
    @@.....
    @@.....
    @@.....
    @@.....
    @@@@@@@

    left-bearing: 1
    right-bearing: 1


0x4d:
'M':
    @@.......@@
    @@@.....@@@
    @@@@...@@@@
    @@.@@.@@.@@
    @@..@@@..@@
    @@...@...@@
    @@.......@@
    @@.......@@
    @@.......@@
    @@.......@@

    left-bearing: 1
    right-bearing: 1


0x4e:
'N':
    @@.....@@
    @@@....@@
    @@@@...@@
    @@.@@..@@
    @@..@@.@@
    @@...@@@@
    @@....@@@
    @@.....@@
    @@.....@@
    @@.....@@

    left-bearing: 1
    right-bearing: 1


0x4f:
'O':
    ..@@@@@..
    .@@...@@.
    @@.....@@
    @@.....@@
    @@.....@@
    @@.....@@
    @@.....@@
    @@.....@@
    .@@...@@.
    ..@@@@@..

    left-bearing: 1
    right-bearing: 1


0x50:
'P':
    @@@@@@@.
    @@....@@
    @@....@@
    @@....@@
    @@@@@@@.
    @@......
    @@......
    @@......
    @@......
    @@......

    left-bearing: 1
    right-bearing: 1


0x51:
'Q':
    ..@@@@..
    .@@..@@.
    @@....@@
    @@....@@
    @@....@@
    @@....@@
    @@....@@
    @@..@.@@
    .@@.@@@.
    ..@@@@..
    .....@@.

    shift-up: -1
    left-bearing: 1
    right-bearing: 1


0x52:
'R':
    @@@@@@@.
    @@....@@
    @@....@@
    @@....@@
    @@@@@@@.
    @@@@....
    @@.@@...
    @@..@@..
    @@...@@.
    @@....@@

    left-bearing: 1
    right-bearing: 1


0x53:
'S':
    .@@@@@@.
    @@....@@
    @@......
    @@......
    .@@@@@@.
    ......@@
    ......@@
    ......@@
    @@....@@
    .@@@@@@.

    left-bearing: 1
    right-bearing: 1


0x54:
'T':
    @@@@@@@@
    ...@@...
    ...@@...
    ...@@...
    ...@@...
    ...@@...
    ...@@...
    ...@@...
    ...@@...
    ...@@...

    left-bearing: 1
    right-bearing: 1


0x55:
'U':
    @@....@@
    @@....@@
    @@....@@
    @@....@@
    @@....@@
    @@....@@
    @@....@@
    @@....@@
    .@@..@@.
    ..@@@@..

    left-bearing: 1
    right-bearing: 1


0x56:
'V':
    @@....@@
    @@....@@
    @@....@@
    @@....@@
    @@....@@
    @@....@@
    @@....@@
    .@@..@@.
    ..@@@@..
    ...@@...

    left-bearing: 1
    right-bearing: 1


0x57:
'W':
    @@.......@@
    @@.......@@
    @@.......@@
    @@.......@@
    @@...@...@@
    @@..@@@..@@
    @@.@@.@@.@@
    @@@@...@@@@
    @@@.....@@@
    @@.......@@

    left-bearing: 1
    right-bearing: 1


0x58:
'X':
    @@.....@@
    @@.....@@
    .@@...@@.
    ..@@.@@..
    ...@@@...
    ...@@@...
    ..@@.@@..
    .@@...@@.
    @@.....@@
    @@.....@@

    left-bearing: 1
    right-bearing: 1


0x59:
'Y':
    @@....@@
    @@....@@
    @@....@@
    .@@..@@.
    ..@@@@..
    ...@@...
    ...@@...
    ...@@...
    ...@@...
    ...@@...

    left-bearing: 1
    right-bearing: 1


0x5a:
'Z':
    @@@@@@@
    .....@@
    .....@@
    ....@@.
    ...@@..
    ..@@...
    .@@....
    @@.....
    @@.....
    @@@@@@@

    left-bearing: 1
    right-bearing: 1


0x5b:
'[':
    @@@
    @@.
    @@.
    @@.
    @@.
    @@.
    @@.
    @@.
    @@.
    @@.
    @@.
    @@.
    @@.
    @@@

    shift-up: -2
    left-bearing: 1
    right-bearing: 1


0x5c:
'\':
    @@.....
    @@.....
    .@@....
    .@@....
    ..@@...
    ..@@...
    ...@@..
    ...@@..
    ....@@.
    ....@@.
    .....@@
    .....@@

    shift-up: -1
    left-bearing: 1
    right-bearing: 1


0x5d:
']':
    @@@
    .@@
    .@@
    .@@
    .@@
    .@@
    .@@
    .@@
    .@@
    .@@
    .@@
    .@@
    .@@
    @@@

    shift-up: -2
    left-bearing: 1
    right-bearing: 1


0x5e:
'^':
    ...@@...
    ..@@@@..
    .@@..@@.
    @@....@@

    shift-up: 7
    left-bearing: 1
    right-bearing: 1


0x5f:
'_':
    @@@@@@@@@
    @@@@@@@@@

    shift-up: -2


0x60:
'`':
    @@.
    .@@

    shift-up: 8
    left-bearing: 1
    right-bearing: 1


0x61:
'a':
    .@@@@@@.
    @@....@@
    ......@@
    .@@@@@@@
    @@....@@
    @@....@@
    @@...@@@
    .@@@@.@@

    left-bearing: 1
    right-bearing: 1


0x62:
'b':
    @@......
    @@......
    @@.@@@..
    @@@..@@.
    @@....@@
    @@....@@
    @@....@@
    @@....@@
    @@@..@@.
    @@.@@@..

    left-bearing: 1
    right-bearing: 1


0x63:
'c':
    ..@@@@@.
    .@@...@@
    @@......
    @@......
    @@......
    @@......
    .@@...@@
    ..@@@@@.

    left-bearing: 1
    right-bearing: 1


0x64:
'd':
    ......@@
    ......@@
    ..@@@.@@
    .@@..@@@
    @@....@@
    @@....@@
    @@....@@
    @@....@@
    .@@..@@@
    ..@@@.@@

    left-bearing: 1
    right-bearing: 1


0x65:
'e':
    ..@@@@..
    .@@..@@.
    @@....@@
    @@@@@@@@
    @@......
    @@......
    .@@...@@
    ..@@@@@.

    left-bearing: 1
    right-bearing: 1


0x66:
'f':
    ..@@@@
    .@@...
    @@@@@.
    .@@...
    .@@...
    .@@...
    .@@...
    .@@...
    .@@...
    .@@...

    left-bearing: 1


0x67:
'g':
    ..@@@.@@
    .@@..@@@
    @@....@@
    @@....@@
    @@....@@
    @@....@@
    .@@..@@@
    ..@@@.@@
    ......@@
    ......@@
    .@@..@@.
    ..@@@@..

    shift-up: -4
    left-bearing: 1
    right-bearing: 1


0x68:
'h':
    @@......
    @@......
    @@.@@@..
    @@@..@@.
    @@....@@
    @@....@@
    @@....@@
    @@....@@
    @@....@@
    @@....@@

    left-bearing: 1
    right-bearing: 1


0x69:
'i':
    @@
    ..
    @@
    @@
    @@
    @@
    @@
    @@
    @@
    @@

    left-bearing: 1
    right-bearing: 1


0x6a:
'j':
    ...@@
    .....
    ...@@
    ...@@
    ...@@
    ...@@
    ...@@
    ...@@
    ...@@
    ...@@
    ...@@
    ...@@
    ...@@
    @@@@.

    shift-up: -4
    right-bearing: 1


0x6b:
'k':
    @@.....
    @@.....
    @@...@@
    @@..@@.
    @@.@@..
    @@@@...
    @@@@...
    @@.@@..
    @@..@@.
    @@...@@

    left-bearing: 1
    right-bearing: 1


0x6c:
'l':
    @@
    @@
    @@
    @@
    @@
    @@
    @@
    @@
    @@
    @@

    left-bearing: 1
    right-bearing: 1


0x6d:
'm':
    @@.@@@..@@@@..
    @@@..@@@@..@@.
    @@....@@....@@
    @@....@@....@@
    @@....@@....@@
    @@....@@....@@
    @@....@@....@@
    @@....@@....@@

    left-bearing: 1
    right-bearing: 1


0x6e:
'n':
    @@.@@@..
    @@@..@@.
    @@....@@
    @@....@@
    @@....@@
    @@....@@
    @@....@@
    @@....@@

    left-bearing: 1
    right-bearing: 1


0x6f:
'o':
    ..@@@@..
    .@@..@@.
    @@....@@
    @@....@@
    @@....@@
    @@....@@
    .@@..@@.
    ..@@@@..

    left-bearing: 1
    right-bearing: 1


0x70:
'p':
    @@.@@@..
    @@@..@@.
    @@....@@
    @@....@@
    @@....@@
    @@....@@
    @@@..@@.
    @@.@@@..
    @@......
    @@......
    @@......
    @@......

    shift-up: -4
    left-bearing: 1
    right-bearing: 1


0x71:
'q':
    ..@@@.@@
    .@@..@@@
    @@....@@
    @@....@@
    @@....@@
    @@....@@
    .@@..@@@
    ..@@@.@@
    ......@@
    ......@@
    ......@@
    ......@@

    shift-up: -4
    left-bearing: 1
    right-bearing: 1


0x72:
'r':
    @@.@@@.
    @@@..@@
    @@.....
    @@.....
    @@.....
    @@.....
    @@.....
    @@.....

    left-bearing: 1
    right-bearing: 1


0x73:
's':
    .@@@@@@.
    @@....@@
    @@......
    .@@@@@@.
    ......@@
    ......@@
    @@....@@
    .@@@@@@.

    left-bearing: 1
    right-bearing: 1


0x74:
't':
    .@@..
    .@@..
    @@@@@
    .@@..
    .@@..
    .@@..
    .@@..
    .@@..
    .@@..
    ..@@@

    left-bearing: 1
    right-bearing: 1


0x75:
'u':
    @@....@@
    @@....@@
    @@....@@
    @@....@@
    @@....@@
    @@....@@
    .@@..@@@
    ..@@@.@@

    left-bearing: 1
    right-bearing: 1


0x76:
'v':
    @@....@@
    @@....@@
    @@....@@
    @@....@@
    @@....@@
    .@@..@@.
    ..@@@@..
    ...@@...

    left-bearing: 1
    right-bearing: 1


0x77:
'w':
    @@...@@...@@
    @@...@@...@@
    @@...@@...@@
    @@...@@...@@
    @@...@@...@@
    @@...@@...@@
    .@@.@@@@.@@.
    ..@@@..@@@..

    left-bearing: 1
    right-bearing: 1


0x78:
'x':
    @@.....@@
    .@@...@@.
    ..@@.@@..
    ...@@@...
    ...@@@...
    ..@@.@@..
    .@@...@@.
    @@.....@@

    left-bearing: 1
    right-bearing: 1


0x79:
'y':
    @@....@@
    @@....@@
    @@....@@
    @@....@@
    @@....@@
    @@....@@
    .@@..@@@
    ..@@@.@@
    ......@@
    ......@@
    .@@..@@.
    ..@@@@..

    shift-up: -4
    left-bearing: 1
    right-bearing: 1


0x7a:
'z':
    @@@@@@@
    .....@@
    ....@@.
    ...@@..
    ..@@...
    .@@....
    @@.....
    @@@@@@@

    left-bearing: 1
    right-bearing: 1


0x7b:
'{':
    ...@
    ..@@
    .@@.
    .@@.
    .@@.
    .@@.
    @@..
    .@@.
    .@@.
    .@@.
    .@@.
    ..@@
    ...@

    shift-up: -2
    left-bearing: 1
    right-bearing: 1


0x7c:
'|':
    @@
    @@
    @@
    @@
    @@
    @@
    @@
    @@
    @@
    @@
    @@
    @@
    @@
    @@

    shift-up: -2
    left-bearing: 1
    right-bearing: 1


0x7d:
'}':
    @...
    @@..
    .@@.
    .@@.
    .@@.
    .@@.
    ..@@
    .@@.
    .@@.
    .@@.
    .@@.
    @@..
    @...

    shift-up: -2
    left-bearing: 1
    right-bearing: 1


0x7e:
'~':
    .@@@@.@@
    @@.@@@@.

    shift-up: 8
    left-bearing: 1


0x80:
'Ä':
    ..@..@..
    ........
    ........
    .@@@@@@.
    @@....@@
    @@....@@
    @@....@@
    @@@@@@@@
    @@....@@
    @@....@@
    @@....@@
    @@....@@
    @@....@@

    left-bearing: 1
    right-bearing: 1


0x81:
'Å':
    ...@@...
    ..@..@..
    ...@@...
    ........
    .@@@@@@.
    @@....@@
    @@....@@
    @@....@@
    @@@@@@@@
    @@....@@
    @@....@@
    @@....@@
    @@....@@
    @@....@@

    left-bearing: 1
    right-bearing: 1


0x82:
'Ç':
    ..@@@@@.
    .@@...@@
    @@......
    @@......
    @@......
    @@......
    @@......
    @@......
    .@@...@@
    ..@@@@@.
    ....@...
    .....@..
    .....@..
    ...@@...

    shift-up: -4
    left-bearing: 1
    right-bearing: 1


0x83:
'É':
    ....@..
    ...@...
    .......
    .......
    @@@@@@@
    @@.....
    @@.....
    @@.....
    @@@@@@.
    @@.....
    @@.....
    @@.....
    @@.....
    @@@@@@@

    left-bearing: 1
    right-bearing: 1


0x84:
'Ñ':
    ..@@@..@.
    .@...@@..
    .........
    .........
    @@.....@@
    @@@....@@
    @@@@...@@
    @@.@@..@@
    @@..@@.@@
    @@...@@@@
    @@....@@@
    @@.....@@
    @@.....@@
    @@.....@@

    left-bearing: 1
    right-bearing: 1


0x85:
'Ö':
    ..@..@...
    .........
    .........
    ..@@@@@..
    .@@...@@.
    @@.....@@
    @@.....@@
    @@.....@@
    @@.....@@
    @@.....@@
    @@.....@@
    .@@...@@.
    ..@@@@@..

    left-bearing: 1
    right-bearing: 1


0x86:
'Ü':
    ..@..@..
    ........
    ........
    @@....@@
    @@....@@
    @@....@@
    @@....@@
    @@....@@
    @@....@@
    @@....@@
    @@....@@
    .@@..@@.
    ..@@@@..

    left-bearing: 1
    right-bearing: 1


0x87:
'á':
    ....@...
    ...@....
    ........
    .@@@@@@.
    @@....@@
    ......@@
    .@@@@@@@
    @@....@@
    @@....@@
    @@...@@@
    .@@@@.@@

    left-bearing: 1
    right-bearing: 1


0x88:
'à':
    ...@....
    ....@...
    ........
    .@@@@@@.
    @@....@@
    ......@@
    .@@@@@@@
    @@....@@
    @@....@@
    @@...@@@
    .@@@@.@@

    left-bearing: 1
    right-bearing: 1


0x89:
'â':
    ...@@...
    ..@..@..
    ........
    .@@@@@@.
    @@....@@
    ......@@
    .@@@@@@@
    @@....@@
    @@....@@
    @@...@@@
    .@@@@.@@

    left-bearing: 1
    right-bearing: 1


0x8a:
'ä':
    ..@..@..
    ........
    .@@@@@@.
    @@....@@
    ......@@
    .@@@@@@@
    @@....@@
    @@....@@
    @@...@@@
    .@@@@.@@

    left-bearing: 1
    right-bearing: 1


0x8b:
'ã':
    ..@@..@.
    .@..@@..
    ........
    .@@@@@@.
    @@....@@
    ......@@
    .@@@@@@@
    @@....@@
    @@....@@
    @@...@@@
    .@@@@.@@

    left-bearing: 1
    right-bearing: 1


0x8c:
'å':
    ...@@...
    ..@..@..
    ..@..@..
    ...@@...
    ........
    .@@@@@@.
    @@....@@
    ......@@
    .@@@@@@@
    @@....@@
    @@....@@
    @@...@@@
    .@@@@.@@

    left-bearing: 1
    right-bearing: 1


0x8d:
'ç':
    ..@@@@@.
    .@@...@@
    @@......
    @@......
    @@......
    @@......
    .@@...@@
    ..@@@@@.
    ....@...
    ....@...
    ...@....

    shift-up: -3
    left-bearing: 1
    right-bearing: 1


0x8e:
'é':
    ....@...
    ...@....
    ........
    ..@@@@..
    .@@..@@.
    @@....@@
    @@@@@@@@
    @@......
    @@......
    .@@...@@
    ..@@@@@.

    left-bearing: 1
    right-bearing: 1


0x8f:
'è':
    ...@....
    ....@...
    ........
    ..@@@@..
    .@@..@@.
    @@....@@
    @@@@@@@@
    @@......
    @@......
    .@@...@@
    ..@@@@@.

    left-bearing: 1
    right-bearing: 1


0x90:
'ê':
    ...@@...
    ..@..@..
    ........
    ..@@@@..
    .@@..@@.
    @@....@@
    @@@@@@@@
    @@......
    @@......
    .@@...@@
    ..@@@@@.

    left-bearing: 1
    right-bearing: 1


0x91:
'ë':
    ..@..@..
    ........
    ..@@@@..
    .@@..@@.
    @@....@@
    @@@@@@@@
    @@......
    @@......
    .@@...@@
    ..@@@@@.

    left-bearing: 1
    right-bearing: 1


0x92:
'í':
    .@
    @.
    ..
    @@
    @@
    @@
    @@
    @@
    @@
    @@
    @@

    left-bearing: 1
    right-bearing: 1


0x93:
'ì':
    @.
    .@
    ..
    @@
    @@
    @@
    @@
    @@
    @@
    @@
    @@

    left-bearing: 1
    right-bearing: 1


0x94:
'î':
    .@@.
    @..@
    ....
    .@@.
    .@@.
    .@@.
    .@@.
    .@@.
    .@@.
    .@@.
    .@@.



0x95:
'ï':
    @..@
    ....
    .@@.
    .@@.
    .@@.
    .@@.
    .@@.
    .@@.
    .@@.
    .@@.



0x96:
'ñ':
    ..@@..@.
    .@..@@..
    ........
    @@.@@@..
    @@@..@@.
    @@....@@
    @@....@@
    @@....@@
    @@....@@
    @@....@@
    @@....@@

    left-bearing: 1
    right-bearing: 1


0x97:
'ó':
    ....@...
    ...@....
    ........
    ..@@@@..
    .@@..@@.
    @@....@@
    @@....@@
    @@....@@
    @@....@@
    .@@..@@.
    ..@@@@..

    left-bearing: 1
    right-bearing: 1


0x98:
'ò':
    ...@....
    ....@...
    ........
    ..@@@@..
    .@@..@@.
    @@....@@
    @@....@@
    @@....@@
    @@....@@
    .@@..@@.
    ..@@@@..

    left-bearing: 1
    right-bearing: 1


0x99:
'ô':
    ...@@...
    ..@..@..
    ........
    ..@@@@..
    .@@..@@.
    @@....@@
    @@....@@
    @@....@@
    @@....@@
    .@@..@@.
    ..@@@@..

    left-bearing: 1
    right-bearing: 1


0x9a:
'ö':
    ..@..@..
    ........
    ..@@@@..
    .@@..@@.
    @@....@@
    @@....@@
    @@....@@
    @@....@@
    .@@..@@.
    ..@@@@..

    left-bearing: 1
    right-bearing: 1


0x9b:
'õ':
    ..@@..@.
    .@..@@..
    ........
    ..@@@@..
    .@@..@@.
    @@....@@
    @@....@@
    @@....@@
    @@....@@
    .@@..@@.
    ..@@@@..

    left-bearing: 1
    right-bearing: 1


0x9c:
'ú':
    ....@...
    ...@....
    ........
    @@....@@
    @@....@@
    @@....@@
    @@....@@
    @@....@@
    @@....@@
    .@@..@@@
    ..@@@.@@

    left-bearing: 1
    right-bearing: 1


0x9d:
'ù':
    ...@....
    ....@...
    ........
    @@....@@
    @@....@@
    @@....@@
    @@....@@
    @@....@@
    @@....@@
    .@@..@@@
    ..@@@.@@

    left-bearing: 1
    right-bearing: 1


0x9e:
'û':
    ...@@...
    ..@..@..
    ........
    @@....@@
    @@....@@
    @@....@@
    @@....@@
    @@....@@
    @@....@@
    .@@..@@@
    ..@@@.@@

    left-bearing: 1
    right-bearing: 1


0x9f:
'ü':
    ..@..@..
    ........
    @@....@@
    @@....@@
    @@....@@
    @@....@@
    @@....@@
    @@....@@
    .@@..@@@
    ..@@@.@@

    left-bearing: 1
    right-bearing: 1


0xa0:
'†':
    .@@.
    .@@.
    @@@@
    .@@.
    .@@.
    .@@.

    shift-up: 6
    left-bearing: 1
    right-bearing: 1


0xa1:
'°':
    .@@@@.
    @@..@@
    @@..@@
    .@@@@.

    shift-up: 6
    left-bearing: 1
    right-bearing: 1


0xa2:
'¢':
    ....@...
    ..@@@@@.
    .@@.@.@@
    @@..@...
    @@..@...
    @@..@...
    @@..@...
    .@@.@.@@
    ..@@@@@.
    ....@...
    ....@...

    shift-up: -2
    left-bearing: 1
    right-bearing: 1


0xa3:
'£':
    ..@@@@@.
    .@@...@@
    .@@.....
    .@@.....
    @@@@@...
    .@@.....
    .@@.....
    .@@.....
    .@@...@@
    @@@@@@@.

    left-bearing: 1
    right-bearing: 1


0xa4:
'§':
    .@@@@@@.
    @@....@@
    @@......
    .@@@@@@.
    @@....@@
    @@....@@
    @@....@@
    .@@@@@@.
    ......@@
    @@....@@
    .@@@@@@.

    shift-up: -1
    left-bearing: 1
    right-bearing: 1


0xa5:
'•':
    ..@@@..
    .@@@@@.
    @@@@@@@
    @@@@@@@
    @@@@@@@
    .@@@@@.
    ..@@@..

    shift-up: 1
    left-bearing: 1
    right-bearing: 1


0xa6:
'¶':
    ..@@@@@@@@
    .@@.@@..@@
    @@..@@..@@
    @@..@@..@@
    @@..@@..@@
    .@@.@@..@@
    ..@@@@@@@@
    ....@@..@@
    ....@@..@@
    ....@@..@@

    left-bearing: 1
    right-bearing: 1


0xa7:
'ß':
    ..@@@@@@.
    .@@....@@
    .@@....@@
    .@@....@@
    .@@...@@.
    .@@....@@
    .@@....@@
    .@@....@@
    .@@....@@
    @@@..@@@.

    right-bearing: 1


0xa8:
'®':
    ..@@@@@@@@..
    .@@......@@.
    @@..@@@...@@
    @@..@..@..@@
    @@..@..@..@@
    @@..@@@...@@
    @@..@..@..@@
    .@@......@@.
    ..@@@@@@@@..

    left-bearing: 1
    right-bearing: 1


0xa9:
'©':
    ..@@@@@@@@..
    .@@......@@.
    @@...@@...@@
    @@..@..@..@@
    @@..@.....@@
    @@..@..@..@@
    @@...@@...@@
    .@@......@@.
    ..@@@@@@@@..

    left-bearing: 1
    right-bearing: 1


0xaa:
'™':
    @@@@.@@....@@
    .@@..@@@..@@@
    .@@..@@.@@.@@
    .@@..@@....@@

    shift-up: 6
    left-bearing: 1
    right-bearing: 1


0xab:
'´':
    .@
    @.

    shift-up: 8
    left-bearing: 1
    right-bearing: 2


0xac:
'¨':
    @..@

    shift-up: 9
    left-bearing: 1
    right-bearing: 1


0xad:
'≠':
    .....@@.
    @@@@@@@@
    @@@@@@@@
    ...@@@..
    @@@@@@@@
    @@@@@@@@
    .@@.....

    left-bearing: 1
    right-bearing: 1


0xae:
'Æ':
    .@@@@@@@@@@@@
    @@....@@@....
    @@....@@@....
    @@....@@@....
    @@@@@@@@@@@@.
    @@....@@@....
    @@....@@@....
    @@....@@@....
    @@....@@@....
    @@....@@@@@@@

    left-bearing: 1
    right-bearing: 1


0xaf:
'Ø':
    ..@@@@@.@
    .@@...@@.
    @@....@@@
    @@...@.@@
    @@..@..@@
    @@..@..@@
    @@.@...@@
    @@@....@@
    .@@...@@.
    @.@@@@@..

    left-bearing: 1
    right-bearing: 1


0xb0:
'∞':
    .@@@@@..@@@@@.
    @@...@@@@...@@
    @@....@@....@@
    @@....@@....@@
    @@...@@@@...@@
    .@@@@@..@@@@@.

    shift-up: 1
    left-bearing: 1
    right-bearing: 1


0xb1:
'±':
    ..@@..
    ..@@..
    @@@@@@
    @@@@@@
    ..@@..
    ..@@..
    ......
    @@@@@@
    @@@@@@

    shift-up: -1
    left-bearing: 1
    right-bearing: 1


0xb2:
'≤':
    ...@@.
    ..@@..
    .@@...
    @@....
    .@@...
    ..@@..
    ...@@.
    ......
    @@@@@@

    left-bearing: 1
    right-bearing: 1


0xb3:
'≥':
    .@@...
    ..@@..
    ...@@.
    ....@@
    ...@@.
    ..@@..
    .@@...
    ......
    @@@@@@

    left-bearing: 1
    right-bearing: 1


0xb4:
'¥':
    @@....@@
    .@@..@@.
    ..@@@@..
    .@@@@@@.
    ...@@...
    ...@@...
    .@@@@@@.
    ...@@...
    ...@@...
    ...@@...

    left-bearing: 1
    right-bearing: 1


0xb5:
'µ':
    @@....@@
    @@....@@
    @@....@@
    @@....@@
    @@....@@
    @@....@@
    @@@..@@@
    @.@@@.@@
    @.......
    @.......

    shift-up: -2
    left-bearing: 1
    right-bearing: 1


0xb6:
'δ':
    .@@@@@..
    .....@@.
    ......@@
    ...@@@@@
    ..@@..@@
    .@@...@@
    @@....@@
    @@....@@
    @@...@@.
    .@@@@@..

    left-bearing: 1
    right-bearing: 1


0xb7:
'Σ':
    @@@@@@@@@
    .@@....@@
    ..@@.....
    ...@@....
    ....@@...
    ....@@...
    ...@@....
    ..@@.....
    .@@....@@
    @@@@@@@@@

    left-bearing: 1
    right-bearing: 1


0xb8:
'Π':
    @@@@@@@@@@@
    .@@.....@@.
    .@@.....@@.
    .@@.....@@.
    .@@.....@@.
    .@@.....@@.
    .@@.....@@.
    .@@.....@@.
    .@@.....@@.
    .@@.....@@.

    left-bearing: 1
    right-bearing: 1


0xb9:
'π':
    ..........@
    .@@@@@@@@@.
    @.@@...@@..
    ..@@...@@..
    ..@@...@@..
    ..@@...@@..
    ..@@...@@..
    ..@@...@@..
    .@@...@@...

    left-bearing: 1
    right-bearing: 1


0xba:
'∫':
    ..@@
    .@@.
    .@@.
    .@@.
    .@@.
    .@@.
    .@@.
    .@@.
    .@@.
    .@@.
    .@@.
    .@@.
    .@@.
    @@..

    shift-up: -4


0xbb:
'ª':
    .@@@@@@
    @@...@@
    @@...@@
    @@...@@
    @@...@@
    .@@@@@@
    .......
    @@@@@@@

    shift-up: 2
    left-bearing: 1
    right-bearing: 1


0xbc:
'º':
    .@@@@@.
    @@...@@
    @@...@@
    @@...@@
    @@...@@
    .@@@@@.
    .......
    @@@@@@@

    shift-up: 2
    left-bearing: 1
    right-bearing: 1


0xbd:
'Ω':
    ..@@@@@@@..
    .@@.....@@.
    @@.......@@
    @@.......@@
    @@.......@@
    @@.......@@
    .@@.....@@.
    ..@@...@@..
    ...@@.@@...
    .@@@@.@@@@.

    left-bearing: 1
    right-bearing: 1


0xbe:
'æ':
    .@@@@@@.@@@@..
    @@....@@@..@@.
    ......@@....@@
    .@@@@@@@@@@@@@
    @@....@@......
    @@....@@......
    @@...@@@@...@@
    .@@@@.@@@@@@@.

    left-bearing: 1
    right-bearing: 1


0xbf:
'ø':
    ..@@@@.@
    .@@..@@.
    @@...@@@
    @@..@.@@
    @@.@..@@
    @@@...@@
    .@@..@@.
    @.@@@@..

    left-bearing: 1
    right-bearing: 1


0xc0:
'¿':
    ...@@...
    ...@@...
    ........
    ...@@...
    ...@@...
    ....@@..
    .....@@.
    ......@@
    @@....@@
    .@@..@@.
    ..@@@@..

    shift-up: -1
    left-bearing: 1
    right-bearing: 1


0xc1:
'¡':
    @@
    ..
    @@
    @@
    @@
    @@
    @@
    @@
    @@
    @@

    left-bearing: 1
    right-bearing: 1


0xc2:
'¬':
    @@@@@@@
    @@@@@@@
    .....@@
    .....@@

    shift-up: 2
    left-bearing: 1
    right-bearing: 1


0xc3:
'√':
    ........@@@
    ........@@@
    .......@@..
    .......@@..
    ......@@...
    ......@@...
    .....@@....
    .....@@....
    @@..@@.....
    .@@.@@.....
    ..@@@......
    ...@@......

    left-bearing: 1
    right-bearing: 1


0xc4:
'ƒ':
    ..@@
    .@@.
    .@@.
    @@@@
    .@@.
    .@@.
    .@@.
    .@@.
    .@@.
    .@@.
    .@@.
    .@@.
    .@@.
    @@..

    shift-up: -4
    left-bearing: 1
    right-bearing: 1


0xc5:
'≈':
    .@@@@.@@
    @@.@@@@.
    ........
    .@@@@.@@
    @@.@@@@.

    shift-up: 1
    left-bearing: 1
    right-bearing: 1


0xc6:
'Δ':
    ....@....
    ...@@@...
    ...@@@...
    ..@@.@@..
    ..@@.@@..
    .@@...@@.
    .@@...@@.
    @@.....@@
    @@@@@@@@@

    left-bearing: 1
    right-bearing: 1


0xc7:
'«':
    ...@@...@@
    ..@@...@@.
    .@@...@@..
    @@...@@...
    .@@...@@..
    ..@@...@@.
    ...@@...@@

    shift-up: -1
    left-bearing: 1
    right-bearing: 1


0xc8:
'»':
    @@...@@...
    .@@...@@..
    ..@@...@@.
    ...@@...@@
    ..@@...@@.
    .@@...@@..
    @@...@@...

    shift-up: -1
    left-bearing: 1
    right-bearing: 1


0xc9:
'…':
    @@...@@...@@
    @@...@@...@@

    left-bearing: 1
    right-bearing: 1


0xca:
' ':
    -

    shift-up: 14
    right-bearing: 6


0xcb:
'À':
    ...@....
    ....@...
    ........
    ........
    .@@@@@@.
    @@....@@
    @@....@@
    @@....@@
    @@@@@@@@
    @@....@@
    @@....@@
    @@....@@
    @@....@@
    @@....@@

    left-bearing: 1
    right-bearing: 1


0xcc:
'Ã':
    ..@@@..@
    .@...@@.
    ........
    ........
    .@@@@@@.
    @@....@@
    @@....@@
    @@....@@
    @@@@@@@@
    @@....@@
    @@....@@
    @@....@@
    @@....@@
    @@....@@

    left-bearing: 1
    right-bearing: 1


0xcd:
'Õ':
    ..@@@..@.
    .@...@@..
    .........
    .........
    ..@@@@@..
    .@@...@@.
    @@.....@@
    @@.....@@
    @@.....@@
    @@.....@@
    @@.....@@
    @@.....@@
    .@@...@@.
    ..@@@@@..

    left-bearing: 1
    right-bearing: 1


0xce:
'Œ':
    ..@@@@@@@@@@@@
    .@@...@@@.....
    @@.....@@.....
    @@.....@@.....
    @@.....@@@@@@.
    @@.....@@.....
    @@.....@@.....
    @@.....@@.....
    .@@...@@@.....
    ..@@@@@@@@@@@@

    left-bearing: 1
    right-bearing: 1


0xcf:
'œ':
    ..@@@@..@@@@..
    .@@..@@@@..@@.
    @@....@@....@@
    @@....@@@@@@@@
    @@....@@......
    @@....@@......
    .@@..@@@@...@@
    ..@@@@..@@@@@.

    left-bearing: 1
    right-bearing: 1


0xd0:
'–':
    @@@@@

    shift-up: 3
    left-bearing: 1
    right-bearing: 1


0xd1:
'—':
    @@@@@@@@

    shift-up: 3
    left-bearing: 1
    right-bearing: 1


0xd2:
'“':
    .@...@
    @...@.
    @@..@@
    @@..@@

    shift-up: 8
    left-bearing: 1
    right-bearing: 1


0xd3:
'”':
    @@..@@
    @@..@@
    .@...@
    @...@.

    shift-up: 7
    left-bearing: 1
    right-bearing: 1


0xd4:
'‘':
    .@
    @.
    @@
    @@

    shift-up: 8
    left-bearing: 1
    right-bearing: 1


0xd5:
'’':
    @@
    @@
    .@
    @.

    shift-up: 7
    left-bearing: 1
    right-bearing: 1


0xd6:
'÷':
    ..@@..
    ..@@..
    ......
    @@@@@@
    @@@@@@
    ......
    ..@@..
    ..@@..

    shift-up: 1
    left-bearing: 1
    right-bearing: 1


0xd7:
'◇':
    .....@.....
    ....@@@....
    ...@@.@@...
    ..@@...@@..
    .@@.....@@.
    @@.......@@
    .@@.....@@.
    ..@@...@@..
    ...@@.@@...
    ....@@@....
    .....@.....

    shift-up: -1
    left-bearing: 1
    right-bearing: 1


0xd8:
'ÿ':
    ..@..@..
    ........
    @@....@@
    @@....@@
    @@....@@
    @@....@@
    @@....@@
    @@....@@
    .@@..@@@
    ..@@@.@@
    ......@@
    ......@@
    .@@..@@.
    ..@@@@..

    shift-up: -4
    left-bearing: 1
    right-bearing: 1


0xd9:
'Ÿ':
    ..@..@..
    ........
    ........
    @@....@@
    @@....@@
    @@....@@
    .@@..@@.
    ..@@@@..
    ...@@...
    ...@@...
    ...@@...
    ...@@...
    ...@@...

    left-bearing: 1
    right-bearing: 1


0xda:
'⁄':
    ........@
    .......@@
    ......@@.
    .....@@..
    ....@@...
    ...@@....
    ..@@.....
    .@@......
    @@.......
    @........

    shift-up: -1


0xdb:
'¤':
    @.@@@@@.@
    .@@...@@.
    @@@...@@@
    @@@...@@@
    @@@...@@@
    @@@...@@@
    .@@...@@.
    @.@@@@@.@

    left-bearing: 1
    right-bearing: 1


0xdc:
'‹':
    ....@@
    ...@@.
    ..@@..
    .@@...
    @@....
    .@@...
    ..@@..
    ...@@.
    ....@@

    shift-up: -1
    left-bearing: 1
    right-bearing: 1


0xdd:
'›':
    @@....
    .@@...
    ..@@..
    ...@@.
    ....@@
    ...@@.
    ..@@..
    .@@...
    @@....

    shift-up: -1
    left-bearing: 1
    right-bearing: 1


0xde:
'ý':
    ....@...
    ...@....
    ........
    @@....@@
    @@....@@
    @@....@@
    @@....@@
    @@....@@
    @@....@@
    .@@..@@@
    ..@@@.@@
    ......@@
    ......@@
    .@@..@@.
    ..@@@@..

    shift-up: -4
    left-bearing: 1
    right-bearing: 1


0xdf:
'Ý':
    ....@...
    ...@....
    ........
    ........
    @@....@@
    @@....@@
    @@....@@
    .@@..@@.
    ..@@@@..
    ...@@...
    ...@@...
    ...@@...
    ...@@...
    ...@@...

    left-bearing: 1
    right-bearing: 1


0xe0:
'‡':
    .@@.
    .@@.
    @@@@
    .@@.
    .@@.
    .@@.
    @@@@
    .@@.
    .@@.

    shift-up: 4
    left-bearing: 1
    right-bearing: 1


0xe1:
'·':
    @

    shift-up: 12
    left-bearing: 1
    right-bearing: 1


0xe2:
'‚':
    @@
    @@
    .@
    @.

    shift-up: -2
    left-bearing: 1
    right-bearing: 1


0xe3:
'„':
    @@..@@
    @@..@@
    .@...@
    @...@.

    shift-up: -2
    left-bearing: 1
    right-bearing: 1


0xe4:
'‰':
    .@@@@@@@@@....
    @@.@@@..@@....
    @@.@@@.@@.....
    .@@@@.@@......
    .....@@.......
    ....@@........
    ...@@.@@@@@@@.
    ..@@.@@.@@@.@@
    .@@..@@.@@@.@@
    .@@...@@@@@@@.

    left-bearing: 1
    right-bearing: 1


0xe5:
'Â':
    ...@@...
    ..@..@..
    ........
    ........
    .@@@@@@.
    @@....@@
    @@....@@
    @@....@@
    @@@@@@@@
    @@....@@
    @@....@@
    @@....@@
    @@....@@
    @@....@@

    left-bearing: 1
    right-bearing: 1


0xe6:
'Ê':
    ..@@...
    .@..@..
    .......
    .......
    @@@@@@@
    @@.....
    @@.....
    @@.....
    @@@@@@.
    @@.....
    @@.....
    @@.....
    @@.....
    @@@@@@@

    left-bearing: 1
    right-bearing: 1


0xe7:
'Á':
    ....@...
    ...@....
    ........
    ........
    .@@@@@@.
    @@....@@
    @@....@@
    @@....@@
    @@@@@@@@
    @@....@@
    @@....@@
    @@....@@
    @@....@@
    @@....@@

    left-bearing: 1
    right-bearing: 1


0xe8:
'Ë':
    .@...@.
    .......
    .......
    @@@@@@@
    @@.....
    @@.....
    @@.....
    @@@@@@.
    @@.....
    @@.....
    @@.....
    @@.....
    @@@@@@@

    left-bearing: 1
    right-bearing: 1


0xe9:
'È':
    ..@....
    ...@...
    .......
    .......
    @@@@@@@
    @@.....
    @@.....
    @@.....
    @@@@@@.
    @@.....
    @@.....
    @@.....
    @@.....
    @@@@@@@

    left-bearing: 1
    right-bearing: 1


0xea:
'Í':
    .@
    @.
    ..
    ..
    @@
    @@
    @@
    @@
    @@
    @@
    @@
    @@
    @@
    @@

    left-bearing: 1
    right-bearing: 1


0xeb:
'Î':
    .@@.
    @..@
    ....
    ....
    .@@.
    .@@.
    .@@.
    .@@.
    .@@.
    .@@.
    .@@.
    .@@.
    .@@.
    .@@.



0xec:
'Ï':
    @..@
    ....
    ....
    .@@.
    .@@.
    .@@.
    .@@.
    .@@.
    .@@.
    .@@.
    .@@.
    .@@.
    .@@.



0xed:
'Ì':
    @.
    .@
    ..
    ..
    @@
    @@
    @@
    @@
    @@
    @@
    @@
    @@
    @@
    @@

    left-bearing: 1
    right-bearing: 1


0xee:
'Ó':
    .....@...
    ....@....
    .........
    .........
    ..@@@@@..
    .@@...@@.
    @@.....@@
    @@.....@@
    @@.....@@
    @@.....@@
    @@.....@@
    @@.....@@
    .@@...@@.
    ..@@@@@..

    left-bearing: 1
    right-bearing: 1


0xef:
'Ô':
    ...@@....
    ..@..@...
    .........
    .........
    ..@@@@@..
    .@@...@@.
    @@.....@@
    @@.....@@
    @@.....@@
    @@.....@@
    @@.....@@
    @@.....@@
    .@@...@@.
    ..@@@@@..

    left-bearing: 1
    right-bearing: 1


0xf0:
    @@@@@@@@@@@
    @@@@@.@@@@@
    @@@@@.@@@@@
    @@@@...@@@@
    @@.@...@.@@
    @@.......@@
    @@.@.@.@.@@
    @@.@.@.@.@@
    @@.@.@.@.@@
    @@.......@@
    @@.......@@
    @@.......@@
    @@.......@@
    @@.......@@
    @@.......@@

    shift-up: -2


0xf1:
'Ò':
    ...@.....
    ....@....
    .........
    .........
    ..@@@@@..
    .@@...@@.
    @@.....@@
    @@.....@@
    @@.....@@
    @@.....@@
    @@.....@@
    @@.....@@
    .@@...@@.
    ..@@@@@..

    left-bearing: 1
    right-bearing: 1


0xf2:
'Ú':
    .....@..
    ....@...
    ........
    ........
    @@....@@
    @@....@@
    @@....@@
    @@....@@
    @@....@@
    @@....@@
    @@....@@
    @@....@@
    .@@..@@.
    ..@@@@..

    left-bearing: 1
    right-bearing: 1


0xf3:
'Û':
    ...@@...
    ..@..@..
    ........
    ........
    @@....@@
    @@....@@
    @@....@@
    @@....@@
    @@....@@
    @@....@@
    @@....@@
    @@....@@
    .@@..@@.
    ..@@@@..

    left-bearing: 1
    right-bearing: 1


0xf4:
'Ù':
    ...@....
    ....@...
    ........
    ........
    @@....@@
    @@....@@
    @@....@@
    @@....@@
    @@....@@
    @@....@@
    @@....@@
    @@....@@
    .@@..@@.
    ..@@@@..

    left-bearing: 1
    right-bearing: 1


0xf5:
'ı':
    @@
    @@
    @@
    @@
    @@
    @@
    @@
    @@

    left-bearing: 1
    right-bearing: 1


0xf6:
'ˆ':
    .@@.
    @..@

    shift-up: 12
    right-bearing: 1


0xf7:
'˜':
    .@@@..@
    @...@@.

    shift-up: 12
    left-bearing: 1
    right-bearing: 1


0xf8:
'¯':
    @@@@@@

    shift-up: 13
    right-bearing: 1


0xf9:
'˘':
    @...@
    .@@@.

    shift-up: 12
    right-bearing: 1


0xfa:
'˙':
    @

    shift-up: 13
    right-bearing: 1


0xfb:
'˚':
    .@@@.
    @...@
    @...@
    @...@
    .@@@.

    shift-up: 9
    right-bearing: 1


0xfc:
'¸':
    @.
    @.
    .@
    @.

    shift-up: -4
    right-bearing: 2


0xfd:
'˝':
    .@...@
    @...@.

    shift-up: 12
    right-bearing: 1


0xfe:
'˛':
    .@
    .@
    @.
    .@

    shift-up: -4
    right-bearing: 2


0xff:
    -

    shift-up: 14
    right-bearing: 7


